<mxfile host="app.diagrams.net" agent="Mozilla/5.0 (Windows NT 10.0; Win64; x64) AppleWebKit/537.36 (KHTML, like Gecko) Chrome/130.0.0.0 Safari/537.36" version="24.7.17">
  <diagram name="Page-1" id="iTOugm3usMEil6YIqQeZ">
    <mxGraphModel dx="1050" dy="557" grid="1" gridSize="10" guides="1" tooltips="1" connect="1" arrows="1" fold="1" page="1" pageScale="1" pageWidth="850" pageHeight="1100" math="0" shadow="0">
      <root>
        <mxCell id="0" />
        <mxCell id="1" parent="0" />
        <mxCell id="vp0qlpwV69-TYpUMdDKY-6" style="edgeStyle=orthogonalEdgeStyle;rounded=0;orthogonalLoop=1;jettySize=auto;html=1;entryX=0;entryY=0.5;entryDx=0;entryDy=0;" edge="1" parent="1" source="vp0qlpwV69-TYpUMdDKY-1" target="vp0qlpwV69-TYpUMdDKY-4">
          <mxGeometry relative="1" as="geometry" />
        </mxCell>
        <mxCell id="vp0qlpwV69-TYpUMdDKY-1" value="BACKEND" style="rounded=0;whiteSpace=wrap;html=1;" vertex="1" parent="1">
          <mxGeometry x="220" y="240" width="120" height="60" as="geometry" />
        </mxCell>
        <mxCell id="vp0qlpwV69-TYpUMdDKY-2" value="FRONTEND" style="rounded=0;whiteSpace=wrap;html=1;" vertex="1" parent="1">
          <mxGeometry x="220" y="150" width="120" height="60" as="geometry" />
        </mxCell>
        <mxCell id="vp0qlpwV69-TYpUMdDKY-7" style="edgeStyle=orthogonalEdgeStyle;rounded=0;orthogonalLoop=1;jettySize=auto;html=1;endArrow=none;endFill=0;" edge="1" parent="1" source="vp0qlpwV69-TYpUMdDKY-3">
          <mxGeometry relative="1" as="geometry">
            <mxPoint x="485" y="270" as="targetPoint" />
          </mxGeometry>
        </mxCell>
        <mxCell id="vp0qlpwV69-TYpUMdDKY-3" value="DATABASE" style="rounded=0;whiteSpace=wrap;html=1;" vertex="1" parent="1">
          <mxGeometry x="220" y="330" width="120" height="60" as="geometry" />
        </mxCell>
        <mxCell id="vp0qlpwV69-TYpUMdDKY-10" style="edgeStyle=orthogonalEdgeStyle;rounded=0;orthogonalLoop=1;jettySize=auto;html=1;entryX=0;entryY=0.25;entryDx=0;entryDy=0;" edge="1" parent="1" source="vp0qlpwV69-TYpUMdDKY-4" target="vp0qlpwV69-TYpUMdDKY-9">
          <mxGeometry relative="1" as="geometry">
            <Array as="points">
              <mxPoint x="670" y="190" />
              <mxPoint x="750" y="190" />
              <mxPoint x="750" y="40" />
            </Array>
          </mxGeometry>
        </mxCell>
        <mxCell id="vp0qlpwV69-TYpUMdDKY-4" value="DOCKER" style="whiteSpace=wrap;html=1;aspect=fixed;" vertex="1" parent="1">
          <mxGeometry x="630" y="230" width="80" height="80" as="geometry" />
        </mxCell>
        <mxCell id="vp0qlpwV69-TYpUMdDKY-5" style="edgeStyle=orthogonalEdgeStyle;rounded=0;orthogonalLoop=1;jettySize=auto;html=1;endArrow=none;endFill=0;" edge="1" parent="1" source="vp0qlpwV69-TYpUMdDKY-2">
          <mxGeometry relative="1" as="geometry">
            <mxPoint x="485" y="270" as="targetPoint" />
          </mxGeometry>
        </mxCell>
        <mxCell id="vp0qlpwV69-TYpUMdDKY-8" value="Pushing Images&amp;nbsp;" style="text;html=1;align=center;verticalAlign=middle;resizable=0;points=[];autosize=1;strokeColor=none;fillColor=none;" vertex="1" parent="1">
          <mxGeometry x="490" y="240" width="110" height="30" as="geometry" />
        </mxCell>
        <mxCell id="vp0qlpwV69-TYpUMdDKY-13" style="edgeStyle=orthogonalEdgeStyle;rounded=0;orthogonalLoop=1;jettySize=auto;html=1;entryX=0;entryY=0.5;entryDx=0;entryDy=0;" edge="1" parent="1" source="vp0qlpwV69-TYpUMdDKY-9" target="vp0qlpwV69-TYpUMdDKY-12">
          <mxGeometry relative="1" as="geometry" />
        </mxCell>
        <mxCell id="vp0qlpwV69-TYpUMdDKY-9" value="DOCKER&lt;br&gt;HUB" style="whiteSpace=wrap;html=1;aspect=fixed;" vertex="1" parent="1">
          <mxGeometry x="790" y="20" width="80" height="80" as="geometry" />
        </mxCell>
        <mxCell id="vp0qlpwV69-TYpUMdDKY-11" value="Registering Images&amp;nbsp;" style="text;html=1;align=center;verticalAlign=middle;resizable=0;points=[];autosize=1;strokeColor=none;fillColor=none;" vertex="1" parent="1">
          <mxGeometry x="620" y="150" width="130" height="30" as="geometry" />
        </mxCell>
        <mxCell id="vp0qlpwV69-TYpUMdDKY-12" value="KUBERNETES" style="whiteSpace=wrap;html=1;" vertex="1" parent="1">
          <mxGeometry x="1010" y="220" width="145" height="90" as="geometry" />
        </mxCell>
        <mxCell id="vp0qlpwV69-TYpUMdDKY-14" value="Applying Deployment / Services" style="text;html=1;align=center;verticalAlign=middle;resizable=0;points=[];autosize=1;strokeColor=none;fillColor=none;rotation=90;" vertex="1" parent="1">
          <mxGeometry x="880" y="110" width="190" height="30" as="geometry" />
        </mxCell>
        <mxCell id="vp0qlpwV69-TYpUMdDKY-15" value="Replicas of Pods" style="text;html=1;align=center;verticalAlign=middle;resizable=0;points=[];autosize=1;strokeColor=none;fillColor=none;" vertex="1" parent="1">
          <mxGeometry x="1025" y="318" width="110" height="30" as="geometry" />
        </mxCell>
      </root>
    </mxGraphModel>
  </diagram>
</mxfile>
